<svg id="visual" viewBox="0 0 1740 2736" width="1740" height="2736" xmlns="http://www.w3.org/2000/svg" xmlns:xlink="http://www.w3.org/1999/xlink" version="1.1"><g><g transform="translate(194 2614)"><path d="M259.8 -232.5C330 -189.5 375.8 -94.7 363.3 -12.5C350.8 69.7 280 139.4 209.7 192.3C139.4 245.1 69.7 281.1 8.6 272.5C-52.6 263.9 -105.1 210.8 -167.3 158C-229.4 105.1 -301.1 52.6 -310.7 -9.6C-320.2 -71.7 -267.6 -143.4 -205.5 -186.3C-143.4 -229.3 -71.7 -243.6 11.5 -255.1C94.7 -266.7 189.5 -275.5 259.8 -232.5Z" fill="#3A1772"></path></g><g transform="translate(578 59)"><path d="M169.3 -158.5C215.7 -122.8 247.2 -61.4 242.3 -4.9C237.4 51.6 196.1 103.2 149.7 162C103.2 220.7 51.6 286.6 -1 287.6C-53.5 288.5 -107.1 224.6 -158.7 165.8C-210.4 107.1 -260.2 53.5 -259.7 0.5C-259.1 -52.5 -208.3 -105 -156.6 -140.6C-105 -176.3 -52.5 -195.1 4.5 -199.5C61.4 -204 122.8 -194.1 169.3 -158.5Z" fill="#004FFF"></path></g><g transform="translate(1611 700)"><path d="M205.9 -205.2C261.7 -150.1 298.3 -75 300.3 2C302.3 79 269.7 158.1 213.9 209.3C158.1 260.5 79 284 15.1 268.9C-48.8 253.8 -97.7 200.2 -149.8 148.9C-201.8 97.7 -257.1 48.8 -256.6 0.5C-256.1 -47.8 -199.8 -95.7 -147.7 -150.8C-95.7 -205.9 -47.8 -268.2 13.6 -281.8C75 -295.4 150.1 -260.3 205.9 -205.2Z" fill="#81F495"></path></g><g transform="translate(58 1283)"><path d="M169.2 -189.2C211.8 -126.5 233.9 -63.3 248.4 14.5C262.9 92.3 270 184.6 227.3 234.4C184.6 284.2 92.3 291.4 17.1 274.3C-58.1 257.2 -116.3 215.8 -155.6 166.1C-194.9 116.3 -215.3 58.1 -216.2 -1C-217.2 -60.1 -198.7 -120.1 -159.4 -182.8C-120.1 -245.5 -60.1 -310.9 1.6 -312.5C63.3 -314.1 126.5 -251.9 169.2 -189.2Z" fill="#E43F6F"></path></g><g transform="translate(1608 2253)"><path d="M173.4 -194.2C220.6 -126.3 251.8 -63.1 256.7 5C261.7 73.1 240.5 146.2 193.4 184.8C146.2 223.4 73.1 227.4 -7.7 235.1C-88.6 242.9 -177.2 254.3 -242.7 215.8C-308.2 177.2 -350.7 88.6 -337.3 13.4C-323.9 -61.8 -254.6 -123.6 -189.1 -191.5C-123.6 -259.4 -61.8 -333.5 0.7 -334.2C63.1 -334.8 126.3 -262.1 173.4 -194.2Z" fill="#F7760E"></path></g></g></svg>