<svg width="500" height="2000" xmlns="http://www.w3.org/2000/svg" version="1.1">
 <g>
  <title>Layer 1</title>
  <g id="svg_1">
   <g id="svg_2">
    <path d="m110.4581,1838.13244c70.2,43 116,137.8 103.5,220c-12.5,82.2 -83.3,151.9 -153.6,204.8c-70.3,52.8 -140,88.8 -201.1,80.2c-61.2,-8.6 -113.7,-61.7 -175.9,-114.5c-62.1,-52.9 -133.8,-105.4 -143.4,-167.6c-9.5,-62.1 43.1,-133.8 105.2,-176.7c62.1,-43 133.8,-57.3 217,-68.8c83.2,-11.6 178,-20.4 248.3,22.6z" fill="#3A1772" id="svg_3"/>
   </g>
   <g id="svg_4">
    <path transform="rotate(-21.7926 -140.751 195.877)" d="m37.00047,-6.17062c46.4,35.7 77.9,97.1 73,153.6c-4.9,56.5 -46.2,108.1 -92.6,166.9c-46.5,58.7 -98.1,124.6 -150.7,125.6c-52.5,0.9 -106.1,-63 -157.7,-121.8c-51.7,-58.7 -101.5,-112.3 -101,-165.3c0.6,-53 51.4,-105.5 103.1,-141.1c51.6,-35.7 104.1,-54.5 161.1,-58.9c56.9,-4.5 118.3,5.4 164.8,41z" fill="#004FFF" id="svg_5"/>
   </g>
   <g transform="rotate(-59.3381 652.798 654.339)" id="svg_6">
    <path d="m836.8061,454.79771c55.8,55.1 92.4,130.2 94.4,207.2c2,77 -30.6,156.1 -86.4,207.3c-55.8,51.2 -134.9,74.7 -198.8,59.6c-63.9,-15.1 -112.8,-68.7 -164.9,-120c-52,-51.2 -107.3,-100.1 -106.8,-148.4c0.5,-48.3 56.8,-96.2 108.9,-151.3c52,-55.1 99.9,-117.4 161.3,-131c61.4,-13.6 136.5,21.5 192.3,76.6z" fill="#81F495" id="svg_7"/>
   </g>
   <g transform="rotate(15.1324 -146.966 1148.06)" id="svg_8">
    <path d="m0.5378,973.8026c42.6,62.7 64.7,125.9 79.2,203.7c14.5,77.8 21.6,170.1 -21.1,219.9c-42.7,49.8 -135,57 -210.2,39.9c-75.2,-17.1 -133.4,-58.5 -172.7,-108.2c-39.3,-49.8 -59.7,-108 -60.6,-167.1c-1,-59.1 17.5,-119.1 56.8,-181.8c39.3,-62.7 99.3,-128.1 161,-129.7c61.7,-1.6 124.9,60.6 167.6,123.3z" fill="#E43F6F" id="svg_9"/>
   </g>
   <g id="svg_10">
    <path d="m914.74796,1378.69938c47.2,67.9 78.4,131.1 83.3,199.2c5,68.1 -16.2,141.2 -63.3,179.8c-47.2,38.6 -120.3,42.6 -201.1,50.3c-80.9,7.8 -169.5,19.2 -235,-19.3c-65.5,-38.6 -108,-127.2 -94.6,-202.4c13.4,-75.2 82.7,-137 148.2,-204.9c65.5,-67.9 127.3,-142 189.8,-142.7c62.4,-0.6 125.6,72.1 172.7,140z" fill="#F7760E" id="svg_11"/>
   </g>
  </g>
 </g>

</svg>