<svg id="visual" viewBox="0 0 900 600" width="900" height="600" xmlns="http://www.w3.org/2000/svg" xmlns:xlink="http://www.w3.org/1999/xlink" version="1.1"><g><g transform="translate(828 45)"><path d="M94.8 -35.2C107.5 8.2 91.8 56.5 58.4 80.8C25.1 105.1 -25.9 105.5 -59.5 81.3C-93.1 57.1 -109.1 8.2 -96.3 -35.4C-83.5 -79 -41.7 -117.3 -0.3 -117.2C41.1 -117.1 82.1 -78.6 94.8 -35.2Z" fill="#97dbc8"></path></g><g transform="translate(164 155)"><path d="M106.5 -35.6C120.7 9.1 103 63.3 67.3 88.2C31.6 113.1 -22.1 108.8 -61.1 81.2C-100 53.6 -124.1 2.7 -111.4 -39.8C-98.8 -82.4 -49.4 -116.7 -1.6 -116.2C46.2 -115.6 92.3 -80.3 106.5 -35.6Z" fill="#97dbc8"></path></g><g transform="translate(718 503)"><path d="M110.7 -37.4C125.3 9.2 106.7 65.2 67.6 93.8C28.5 122.4 -31.1 123.6 -69.2 95.8C-107.3 68 -123.9 11.2 -108.8 -36.1C-93.7 -83.3 -46.8 -120.9 0.6 -121.1C48 -121.3 96 -84 110.7 -37.4Z" fill="#97dbc8"></path></g><g transform="translate(348 557)"><path d="M108.1 -40.2C120.4 2.8 97.1 52.2 58.2 80.6C19.3 109 -35.3 116.3 -71.4 91.6C-107.5 67 -125.2 10.3 -110.2 -36.4C-95.2 -83.1 -47.6 -119.7 0.1 -119.8C47.9 -119.8 95.8 -83.2 108.1 -40.2Z" fill="#97dbc8"></path></g><g transform="translate(13 488)"><path d="M116.2 -37.9C129.2 2.2 103.5 54.7 61.7 85.1C19.8 115.6 -38.3 124.1 -77.3 97.8C-116.3 71.4 -136.3 10.3 -120.2 -34C-104.2 -78.4 -52.1 -106 -0.2 -105.9C51.6 -105.8 103.2 -78.1 116.2 -37.9Z" fill="#97dbc8"></path></g><g transform="translate(481 41)"><path d="M96.6 -26.5C111.9 15.9 102 71.4 67.7 97.3C33.3 123.2 -25.5 119.6 -61 91.9C-96.6 64.2 -108.9 12.4 -94.9 -28.2C-80.9 -68.8 -40.4 -98.2 0.1 -98.2C40.6 -98.2 81.2 -68.9 96.6 -26.5Z" fill="#97dbc8"></path></g></g></svg>